<svg width="39" height="39" viewBox="0 0 39 39" fill="none" xmlns="http://www.w3.org/2000/svg">
<rect width="38.3929" height="38.3929" rx="6" fill="#F6901F"/>
<path d="M28.8746 9.5182C27.8551 8.49865 26.2021 8.49865 25.1825 9.5182L15.2804 19.4204V23.1125H18.9725L28.8746 13.2103C29.8942 12.1908 29.8942 10.5377 28.8746 9.5182Z" fill="white"/>
<path fill-rule="evenodd" clip-rule="evenodd" d="M8.75357 13.975C8.75357 12.5331 9.92243 11.3643 11.3643 11.3643H16.5857C17.3066 11.3643 17.8911 11.9487 17.8911 12.6696C17.8911 13.3905 17.3066 13.975 16.5857 13.975H11.3643V27.0285H24.4179V21.8071C24.4179 21.0862 25.0023 20.5018 25.7232 20.5018C26.4441 20.5018 27.0286 21.0862 27.0286 21.8071V27.0285C27.0286 28.4704 25.8597 29.6393 24.4179 29.6393H11.3643C9.92243 29.6393 8.75357 28.4704 8.75357 27.0285V13.975Z" fill="white"/>
</svg>
