<svg width="372" height="55" viewBox="0 0 372 55" fill="none" xmlns="http://www.w3.org/2000/svg">
<g clip-path="url(#clip0_6_2799)">
<rect width="372" height="55" rx="21" fill="#0C6DAE"/>
<path d="M161.778 23C161.741 22.5265 161.563 22.1572 161.246 21.892C160.933 21.6269 160.457 21.4943 159.818 21.4943C159.411 21.4943 159.077 21.544 158.817 21.6435C158.561 21.7382 158.372 21.8684 158.249 22.0341C158.125 22.1998 158.062 22.3892 158.057 22.6023C158.047 22.7775 158.078 22.9361 158.149 23.0781C158.225 23.2154 158.343 23.3409 158.504 23.4545C158.665 23.5634 158.871 23.6629 159.122 23.7528C159.373 23.8428 159.671 23.9233 160.017 23.9943L161.21 24.25C162.015 24.4205 162.704 24.6454 163.277 24.9247C163.85 25.2041 164.319 25.5331 164.683 25.9119C165.048 26.286 165.315 26.7074 165.486 27.1761C165.661 27.6449 165.751 28.1562 165.756 28.7102C165.751 29.6667 165.512 30.4763 165.038 31.1392C164.565 31.8021 163.888 32.3063 163.007 32.652C162.131 32.9976 161.078 33.1705 159.847 33.1705C158.582 33.1705 157.479 32.9834 156.537 32.6094C155.599 32.2353 154.87 31.66 154.349 30.8835C153.833 30.1023 153.573 29.1032 153.568 27.8864H157.318C157.342 28.3314 157.453 28.7055 157.652 29.0085C157.851 29.3116 158.13 29.5412 158.49 29.6974C158.855 29.8537 159.288 29.9318 159.79 29.9318C160.211 29.9318 160.564 29.8797 160.848 29.7756C161.132 29.6714 161.348 29.527 161.494 29.3423C161.641 29.1577 161.717 28.947 161.722 28.7102C161.717 28.4877 161.643 28.2936 161.501 28.1278C161.364 27.9574 161.137 27.8059 160.82 27.6733C160.502 27.536 160.074 27.4081 159.534 27.2898L158.085 26.9773C156.797 26.6979 155.782 26.2315 155.038 25.5781C154.3 24.92 153.933 24.0227 153.938 22.8864C153.933 21.9631 154.179 21.1558 154.676 20.4645C155.178 19.7685 155.872 19.2263 156.757 18.8381C157.647 18.4498 158.668 18.2557 159.818 18.2557C160.992 18.2557 162.008 18.4522 162.865 18.8452C163.722 19.2382 164.383 19.7921 164.847 20.5071C165.315 21.2173 165.552 22.0483 165.557 23H161.778ZM171.207 18.4545V33H167.258V18.4545H171.207ZM185.663 18.4545V33H182.368L177.112 25.358H177.027V33H173.078V18.4545H176.43L181.601 26.0682H181.714V18.4545H185.663ZM196.977 23.2557C196.916 23.0047 196.819 22.7846 196.686 22.5952C196.554 22.401 196.388 22.2377 196.189 22.1051C195.995 21.9678 195.768 21.866 195.507 21.7997C195.251 21.7287 194.97 21.6932 194.662 21.6932C193.999 21.6932 193.433 21.8518 192.964 22.169C192.5 22.4863 192.145 22.9432 191.899 23.5398C191.658 24.1364 191.537 24.8561 191.537 25.6989C191.537 26.5511 191.653 27.2803 191.885 27.8864C192.117 28.4924 192.463 28.9564 192.922 29.2784C193.381 29.6004 193.952 29.7614 194.634 29.7614C195.235 29.7614 195.734 29.6738 196.132 29.4986C196.535 29.3234 196.835 29.0748 197.034 28.7528C197.233 28.4309 197.332 28.0521 197.332 27.6165L198.014 27.6875H194.69V24.875H201.139V26.892C201.139 28.2178 200.857 29.3518 200.294 30.294C199.735 31.2315 198.964 31.9512 197.979 32.4531C196.999 32.9503 195.874 33.1989 194.605 33.1989C193.189 33.1989 191.946 32.8982 190.876 32.2969C189.806 31.6955 188.971 30.8385 188.369 29.7259C187.773 28.6132 187.474 27.2898 187.474 25.7557C187.474 24.553 187.657 23.4877 188.021 22.5597C188.391 21.6316 188.902 20.848 189.555 20.2088C190.209 19.5649 190.964 19.0795 191.821 18.7528C192.678 18.4214 193.597 18.2557 194.577 18.2557C195.438 18.2557 196.239 18.3788 196.977 18.625C197.721 18.8665 198.376 19.2121 198.945 19.6619C199.518 20.107 199.979 20.6349 200.33 21.2457C200.68 21.8565 200.893 22.5265 200.969 23.2557H196.977ZM214.898 18.4545V33H210.949V18.4545H214.898ZM229.355 18.4545V33H226.059L220.804 25.358H220.718V33H216.77V18.4545H220.122L225.292 26.0682H225.406V18.4545H229.355Z" fill="white"/>
</g>
<defs>
<clipPath id="clip0_6_2799">
<rect width="372" height="55" rx="21" fill="white"/>
</clipPath>
</defs>
</svg>
