<svg width="289" height="94" viewBox="0 0 289 94" fill="none" xmlns="http://www.w3.org/2000/svg">
<g clip-path="url(#clip0_4_1929)">
<path d="M177.734 0C181.841 0 183.637 2.31101 183.637 6.16901V44.73H165.677V16.9474C165.688 16.794 165.668 16.6399 165.617 16.4946C165.567 16.3494 165.487 16.2162 165.382 16.1034C165.278 15.9906 165.152 15.9007 165.011 15.8391C164.87 15.7776 164.718 15.7458 164.565 15.7458C164.411 15.7458 164.26 15.7776 164.119 15.8391C163.978 15.9007 163.852 15.9906 163.747 16.1034C163.643 16.2162 163.563 16.3494 163.512 16.4946C163.462 16.6399 163.442 16.794 163.453 16.9474V45.1531C163.453 46.3528 163.881 46.7001 164.996 46.7001H183.637V62.3783H151.402C147.295 62.3783 145.5 60.0673 145.5 56.2977V6.08061C145.5 2.29207 147.295 0 151.402 0H177.734Z" fill="#F6901F"/>
<path d="M191.24 62.3846C187.139 62.3846 185.344 60.0736 185.344 56.304V0H203.297V45.5067C203.277 45.6621 203.29 45.8202 203.338 45.9696C203.385 46.119 203.465 46.256 203.572 46.3707C203.679 46.4855 203.809 46.5751 203.955 46.6331C204.1 46.6912 204.256 46.7162 204.412 46.7064H208.431V62.3846H191.24Z" fill="#0C6DAE"/>
<path d="M222.026 0C225.805 0 228.092 1.79956 228.092 5.99853V45.4183C228.092 46.3591 228.439 46.6811 229.289 46.6811H230.316V0.681938H248.269V62.3846H216.041C211.934 62.3846 210.139 60.0736 210.139 56.304V0H222.026Z" fill="#0C6DAE"/>
<path d="M288.114 56.304C288.114 60.5851 285.808 62.3846 282.041 62.3846H249.983V0H282.218C286.318 0 288.114 2.31101 288.114 6.08061V25.1054C288.114 28.8939 286.318 31.1923 282.218 31.1923V32.392C286.318 32.392 288.114 34.7093 288.114 38.4789V56.304ZM270.16 16.9663C270.181 16.8109 270.167 16.6528 270.12 16.5034C270.072 16.354 269.992 16.217 269.886 16.1023C269.779 15.9876 269.648 15.898 269.503 15.8399C269.358 15.7819 269.201 15.7569 269.045 15.7666H267.937V28.7929H269.045C269.82 28.7929 270.16 28.6224 270.16 27.8521V16.9663ZM267.937 35.9911V46.7253H269.045C269.201 46.7351 269.358 46.7101 269.503 46.6521C269.648 46.594 269.779 46.5044 269.886 46.3897C269.992 46.275 270.072 46.138 270.12 45.9885C270.167 45.8391 270.181 45.681 270.16 45.5256V37.1908C270.16 36.25 269.82 35.9911 269.045 35.9911H267.937Z" fill="#0C6DAE"/>
<path d="M32.2345 0C36.3418 0 38.1372 2.31101 38.1372 6.08061V38.7315C38.1372 42.5201 36.3418 44.8184 32.2345 44.8184H17.9536V62.3846H0V0H32.2345ZM20.1773 30.081V16.9663C20.1773 16.196 19.9253 15.7666 19.2387 15.7666H17.9788V30.9208H19.0056C19.667 30.9334 20.1773 30.763 20.1773 30.081Z" fill="#F6901F"/>
<path d="M45.7407 0H72.0789C76.1799 0 77.9752 2.31101 77.9752 6.08061V56.304C77.9752 60.0926 76.1799 62.3846 72.0789 62.3846H45.7407C41.6397 62.3846 39.8444 60.0736 39.8444 56.304V6.08061C39.8444 2.31101 41.6397 0 45.7407 0ZM58.9129 15.7856C58.7568 15.7758 58.6005 15.8008 58.4551 15.8589C58.3098 15.9169 58.1791 16.0065 58.0725 16.1212C57.9659 16.236 57.8859 16.373 57.8385 16.5224C57.791 16.6718 57.7771 16.8299 57.7979 16.9853V45.5256C57.7864 45.679 57.8066 45.8332 57.8572 45.9784C57.9079 46.1236 57.9879 46.2568 58.0923 46.3696C58.1967 46.4824 58.3231 46.5724 58.4638 46.6339C58.6045 46.6954 58.7563 46.7272 58.9098 46.7272C59.0633 46.7272 59.2151 46.6954 59.3558 46.6339C59.4964 46.5724 59.6229 46.4824 59.7273 46.3696C59.8317 46.2568 59.9117 46.1236 59.9623 45.9784C60.013 45.8332 60.0332 45.679 60.0216 45.5256V16.9853C60.0466 16.8288 60.0361 16.6687 59.9908 16.5169C59.9455 16.365 59.8667 16.2254 59.7602 16.1083C59.6536 15.9912 59.5221 15.8997 59.3755 15.8405C59.2288 15.7814 59.0707 15.7561 58.9129 15.7666V15.7856Z" fill="#0C6DAE"/>
<path d="M85.5849 62.3846C81.484 62.3846 79.6886 60.0736 79.6886 56.304V0H97.6422V45.5067C97.6215 45.6615 97.6352 45.8191 97.6823 45.968C97.7295 46.1169 97.8088 46.2536 97.9147 46.3682C98.0207 46.4828 98.1505 46.5725 98.2951 46.631C98.4396 46.6895 98.5953 46.7152 98.7509 46.7064H102.77V62.3846H85.5849Z" fill="#0C6DAE"/>
<path d="M122.437 -1.1038e-05V16.2781C122.437 16.9663 122.777 17.6546 123.546 17.6546H124.661V-0.0252686H142.614V56.2788C142.614 60.0673 140.819 62.3594 136.63 62.3594H110.55C106.77 62.3594 104.483 60.5598 104.483 56.3609V35.2208H122.437V45.5067C122.425 45.6601 122.446 45.8142 122.496 45.9595C122.547 46.1047 122.627 46.2379 122.731 46.3506C122.836 46.4634 122.962 46.5534 123.103 46.615C123.244 46.6765 123.395 46.7082 123.549 46.7082C123.702 46.7082 123.854 46.6765 123.995 46.615C124.136 46.5534 124.262 46.4634 124.366 46.3506C124.471 46.2379 124.551 46.1047 124.601 45.9595C124.652 45.8142 124.672 45.6601 124.661 45.5067V33.3328H110.38C106.279 33.3328 104.483 31.0218 104.483 27.2522V-1.1038e-05H122.437Z" fill="#0C6DAE"/>
<path d="M47.4667 81.6873H50.1692C52.3992 81.6873 53.7221 82.4197 53.7221 84.4655C53.7221 86.5113 52.3929 87.3764 50.1692 87.3764H48.1596V91.6701H47.4667V81.6873ZM49.9865 86.7892C52.0149 86.7892 52.9913 86.1072 52.9913 84.4655C52.9913 82.8238 52.0149 82.2745 49.9865 82.2745H48.147V86.7892H49.9865Z" fill="#0C6DAE"/>
<path d="M55.5615 86.6439C55.5615 83.4868 57.1112 81.5042 59.2845 81.5042C61.4579 81.5042 63.0075 83.4742 63.0075 86.6439C63.0075 89.8137 61.4579 91.8532 59.2845 91.8532C57.1112 91.8532 55.5615 89.8263 55.5615 86.6439ZM62.2768 86.6439C62.2768 83.8657 61.0673 82.1356 59.2845 82.1356C57.5018 82.1356 56.2986 83.8657 56.2986 86.6439C56.2986 89.4222 57.5018 91.2154 59.2845 91.2154C61.0673 91.2154 62.2768 89.4348 62.2768 86.6439Z" fill="#0C6DAE"/>
<path d="M66.088 81.6873H66.7621V91.0702H71.9654V91.6701H66.088V81.6873Z" fill="#0C6DAE"/>
<path d="M77.0806 88.0015L73.6663 81.6873H74.3844L76.1483 84.977C76.5955 85.7536 76.9735 86.5303 77.4082 87.3322H77.4712C77.931 86.5303 78.3531 85.7536 78.7752 84.9643L80.4886 81.6873H81.1753L77.7546 88.0015V91.6701H77.0617L77.0806 88.0015Z" fill="#0C6DAE"/>
<path d="M95.2232 82.2871H91.7522V81.6873H99.3935V82.2871H95.9225V91.6701H95.2295L95.2232 82.2871Z" fill="#0C6DAE"/>
<path d="M102.027 81.6873H107.923V82.2871H102.726V86.0756H107.136V86.6755H102.726V91.0955H108.074V91.6953H102.027V81.6873Z" fill="#0C6DAE"/>
<path d="M110.26 86.6566C110.26 83.4995 111.986 81.5042 114.537 81.5042C115.029 81.5053 115.514 81.6118 115.96 81.8166C116.407 82.0213 116.805 82.3196 117.127 82.6912L116.711 83.1522C116.445 82.8335 116.113 82.5772 115.737 82.4016C115.361 82.2259 114.952 82.1351 114.537 82.1356C112.352 82.1356 110.991 83.8783 110.991 86.6502C110.991 89.4222 112.352 91.247 114.512 91.247C114.998 91.2514 115.478 91.1432 115.915 90.9307C116.353 90.7182 116.735 90.4072 117.032 90.022L117.448 90.4577C117.096 90.9095 116.644 91.2735 116.128 91.5211C115.612 91.7686 115.046 91.8931 114.474 91.8848C111.992 91.8784 110.26 89.8326 110.26 86.6566Z" fill="#0C6DAE"/>
<path d="M119.583 81.6873H120.289V86.0567H125.278V81.6873H125.984V91.6701H125.278V86.6692H120.289V91.6701H119.583V81.6873Z" fill="#0C6DAE"/>
<path d="M128.711 81.6872H129.455L133.335 88.7213L134.393 90.6913H134.425C134.425 89.7316 134.337 88.7655 134.337 87.7931V81.662H134.967V91.6448H134.223L130.343 84.5855L129.278 82.6091C129.278 83.5815 129.366 84.5034 129.366 85.4568V91.6448H128.736L128.711 81.6872Z" fill="#0C6DAE"/>
<path d="M138.016 91.0702H140.58V82.2871H138.016V81.6873H143.836V82.2871H141.273V91.0702H143.836V91.6701H138.016V91.0702Z" fill="#0C6DAE"/>
<path d="M146.274 86.6439C146.274 83.4868 147.824 81.5042 149.997 81.5042C152.171 81.5042 153.72 83.4742 153.72 86.6439C153.72 89.8137 152.171 91.8532 149.997 91.8532C147.824 91.8532 146.274 89.8263 146.274 86.6439ZM152.99 86.6439C152.99 83.8657 151.78 82.1356 149.997 82.1356C148.215 82.1356 147.005 83.8657 147.005 86.6439C147.005 89.4222 148.215 91.2533 149.997 91.2533C151.78 91.2533 152.99 89.479 152.99 86.6439ZM149.582 91.7332L150.344 91.689C150.486 92.2047 150.805 92.6532 151.246 92.955C151.686 93.2567 152.219 93.3921 152.75 93.337C152.992 93.3406 153.233 93.3021 153.462 93.2234L153.601 93.8548C153.298 93.9466 152.984 93.9955 152.668 94C151.974 94.0263 151.291 93.8168 150.731 93.4053C150.171 92.9938 149.766 92.4045 149.582 91.7332Z" fill="#0C6DAE"/>
<path d="M155.868 87.932V81.6873H156.568V87.8563C156.568 90.4198 157.739 91.2154 159.088 91.2154C160.436 91.2154 161.607 90.4198 161.607 87.8563V81.6873H162.275V87.932C162.275 90.9629 160.751 91.8532 159.075 91.8532C157.399 91.8532 155.868 90.9629 155.868 87.932Z" fill="#0C6DAE"/>
<path d="M165.538 81.6873H171.435V82.2871H166.237V86.0756H170.578V86.6755H166.206V91.0955H171.554V91.6953H165.538V81.6873Z" fill="#0C6DAE"/>
<path d="M183.177 86.385H189.394V86.9533H183.177V86.385Z" fill="#0C6DAE"/>
<path d="M201.042 90.3504L201.489 89.8705C201.883 90.3039 202.363 90.6502 202.897 90.8872C203.432 91.1242 204.01 91.2468 204.595 91.247C206.195 91.247 207.203 90.4325 207.203 89.258C207.203 88.0836 206.321 87.6037 205.269 87.1617L203.757 86.4798C202.831 86.0946 201.59 85.4758 201.59 83.9919C201.59 82.5081 202.888 81.5357 204.633 81.5357C205.174 81.5316 205.712 81.6349 206.213 81.8397C206.715 82.0446 207.171 82.3468 207.556 82.7291L207.153 83.1963C206.824 82.8629 206.431 82.5998 205.998 82.4229C205.565 82.246 205.1 82.159 204.633 82.1671C203.241 82.1671 202.308 82.868 202.308 83.9541C202.308 85.0401 203.379 85.5516 204.198 85.8483L205.697 86.5303C206.894 87.0228 207.946 87.6416 207.946 89.1696C207.946 90.6977 206.636 91.8595 204.614 91.8595C203.945 91.8803 203.28 91.7563 202.664 91.4958C202.047 91.2354 201.494 90.8447 201.042 90.3504Z" fill="#0C6DAE"/>
<path d="M209.773 86.6439C209.773 83.4868 211.323 81.5042 213.496 81.5042C215.67 81.5042 217.219 83.4742 217.219 86.6439C217.219 89.8137 215.663 91.8532 213.496 91.8532C211.329 91.8532 209.773 89.8263 209.773 86.6439ZM216.482 86.6439C216.482 83.8657 215.279 82.1356 213.496 82.1356C211.714 82.1356 210.504 83.8657 210.504 86.6439C210.504 89.4222 211.714 91.2154 213.496 91.2154C215.279 91.2154 216.482 89.4348 216.482 86.6439Z" fill="#0C6DAE"/>
<path d="M219.367 87.932V81.6873H220.067V87.8563C220.067 90.4198 221.238 91.2154 222.586 91.2154C223.934 91.2154 225.106 90.4198 225.106 87.8563V81.6873H225.768V87.932C225.768 90.9629 224.249 91.8532 222.574 91.8532C220.898 91.8532 219.367 90.9629 219.367 87.932Z" fill="#0C6DAE"/>
<path d="M228.256 90.3504L228.703 89.8705C229.097 90.295 229.573 90.6336 230.104 90.865C230.634 91.0965 231.206 91.2157 231.784 91.2154C233.384 91.2154 234.392 90.4009 234.392 89.2264C234.392 88.052 233.51 87.5721 232.458 87.1301L230.946 86.4482C230.02 86.063 228.779 85.4442 228.779 83.9604C228.779 82.4765 230.077 81.5041 231.821 81.5041C232.363 81.5 232.9 81.6034 233.402 81.8082C233.904 82.013 234.36 82.3153 234.744 82.6975L234.341 83.1648C234.013 82.8314 233.62 82.5683 233.187 82.3914C232.754 82.2144 232.289 82.1274 231.821 82.1356C230.429 82.1356 229.497 82.8364 229.497 83.9225C229.497 85.0085 230.568 85.52 231.387 85.8168L232.886 86.4987C234.083 86.9912 235.135 87.61 235.135 89.1381C235.135 90.6661 233.825 91.8279 231.803 91.8279C231.141 91.8491 230.482 91.7282 229.87 91.4734C229.258 91.2186 228.708 90.8357 228.256 90.3504Z" fill="#0C6DAE"/>
<path d="M237.352 90.3504L237.8 89.8705C238.193 90.295 238.67 90.6336 239.2 90.865C239.73 91.0965 240.302 91.2157 240.88 91.2154C242.48 91.2154 243.488 90.4009 243.488 89.2264C243.488 88.052 242.606 87.5721 241.554 87.1301L240.042 86.4482C239.116 86.063 237.875 85.4442 237.875 83.9604C237.875 82.4765 239.173 81.5041 240.918 81.5041C241.46 81.5 241.997 81.6034 242.498 81.8082C243 82.013 243.456 82.3153 243.841 82.6975L243.438 83.1648C243.109 82.8314 242.716 82.5683 242.283 82.3914C241.85 82.2144 241.386 82.1274 240.918 82.1356C239.526 82.1356 238.593 82.8364 238.593 83.9225C238.593 85.0085 239.664 85.52 240.483 85.8168L241.983 86.4987C243.173 86.9912 244.232 87.61 244.232 89.1381C244.232 90.6661 242.921 91.8279 240.899 91.8279C240.237 91.8491 239.578 91.7282 238.966 91.4734C238.355 91.2186 237.805 90.8357 237.352 90.3504Z" fill="#0C6DAE"/>
<path d="M247.161 81.6873H253.057V82.2871H247.86V86.0756H252.238V86.6755H247.86V91.0955H253.208V91.6953H247.161V81.6873Z" fill="#0C6DAE"/>
</g>
<defs>
<clipPath id="clip0_4_1929">
<rect width="288.114" height="94" fill="white"/>
</clipPath>
</defs>
</svg>
