<svg width="172" height="57" viewBox="0 0 172 57" fill="none" xmlns="http://www.w3.org/2000/svg">
<g clip-path="url(#clip0_251_1476)">
<path d="M106.105 0C108.557 0 109.629 1.37964 109.629 3.68281V26.7032H98.9069V10.1174C98.9138 10.0258 98.9017 9.93377 98.8715 9.84708C98.8413 9.76038 98.7935 9.68087 98.7312 9.61353C98.6689 9.5462 98.5934 9.49248 98.5094 9.45574C98.4254 9.41901 98.3347 9.40005 98.2431 9.40005C98.1515 9.40005 98.0609 9.41901 97.9769 9.45574C97.8929 9.49248 97.8174 9.5462 97.7551 9.61353C97.6928 9.68087 97.645 9.76038 97.6148 9.84708C97.5845 9.93377 97.5725 10.0258 97.5794 10.1174V26.9558C97.5794 27.672 97.8351 27.8793 98.5007 27.8793H109.629V37.239H90.3851C87.9331 37.239 86.8613 35.8594 86.8613 33.609V3.63004C86.8613 1.36833 87.9331 0 90.3851 0H106.105Z" fill="#F6901F"/>
<path d="M114.168 37.2428C111.72 37.2428 110.648 35.8631 110.648 33.6127V0H121.366V27.1669C121.354 27.2596 121.362 27.354 121.39 27.4432C121.419 27.5324 121.466 27.6142 121.53 27.6827C121.594 27.7512 121.672 27.8047 121.758 27.8393C121.845 27.874 121.938 27.8889 122.032 27.8831H124.431V37.2428H114.168Z" fill="#0C6DAE"/>
<path d="M132.546 0C134.803 0 136.168 1.07431 136.168 3.58104V27.1141C136.168 27.6758 136.375 27.868 136.882 27.868H137.495V0.407108H148.213V37.2428H128.974C126.522 37.2428 125.45 35.8631 125.45 33.6127V0H132.546Z" fill="#0C6DAE"/>
<path d="M172 33.6127C172 36.1685 170.624 37.2428 168.375 37.2428H149.236V0H168.48C170.928 0 172 1.37964 172 3.63004V14.9876C172 17.2493 170.928 18.6214 168.48 18.6214V19.3376C170.928 19.3376 172 20.721 172 22.9714V33.6127ZM161.282 10.1287C161.294 10.0359 161.286 9.94152 161.258 9.85233C161.229 9.76313 161.182 9.68134 161.118 9.61285C161.054 9.54436 160.976 9.49086 160.89 9.45622C160.803 9.42157 160.709 9.40663 160.616 9.41247H159.954V17.189H160.616C161.079 17.189 161.282 17.0872 161.282 16.6273V10.1287ZM159.954 21.4862V27.8944H160.616C160.709 27.9002 160.803 27.8853 160.89 27.8506C160.976 27.816 161.054 27.7625 161.118 27.694C161.182 27.6255 161.229 27.5437 161.258 27.4545C161.286 27.3653 161.294 27.271 161.282 27.1782V22.2024C161.282 21.6408 161.079 21.4862 160.616 21.4862H159.954Z" fill="#0C6DAE"/>
<path d="M19.2436 0C21.6956 0 22.7674 1.37964 22.7674 3.63004V23.1222C22.7674 25.3839 21.6956 26.756 19.2436 26.756H10.718V37.2428H0V0H19.2436ZM12.0456 17.958V10.1287C12.0456 9.6688 11.8951 9.41247 11.4852 9.41247H10.7331V18.4593H11.3461C11.7409 18.4668 12.0456 18.3651 12.0456 17.958Z" fill="#F6901F"/>
<path d="M27.3066 0H43.0302C45.4784 0 46.5502 1.37964 46.5502 3.63004V33.6127C46.5502 35.8744 45.4784 37.2428 43.0302 37.2428H27.3066C24.8584 37.2428 23.7866 35.8631 23.7866 33.6127V3.63004C23.7866 1.37964 24.8584 0 27.3066 0ZM35.1703 9.42378C35.0771 9.41794 34.9838 9.43288 34.897 9.46752C34.8102 9.50217 34.7322 9.55566 34.6686 9.62416C34.6049 9.69265 34.5572 9.77444 34.5288 9.86363C34.5005 9.95283 34.4922 10.0472 34.5047 10.14V27.1782C34.4978 27.2698 34.5098 27.3618 34.5401 27.4485C34.5703 27.5352 34.6181 27.6147 34.6804 27.682C34.7427 27.7493 34.8182 27.8031 34.9022 27.8398C34.9862 27.8765 35.0768 27.8955 35.1684 27.8955C35.26 27.8955 35.3507 27.8765 35.4347 27.8398C35.5186 27.8031 35.5942 27.7493 35.6565 27.682C35.7188 27.6147 35.7665 27.5352 35.7968 27.4485C35.827 27.3618 35.8391 27.2698 35.8322 27.1782V10.14C35.8471 10.0466 35.8408 9.95098 35.8138 9.86034C35.7867 9.76969 35.7397 9.68632 35.6761 9.61642C35.6125 9.54651 35.534 9.49187 35.4464 9.45657C35.3589 9.42126 35.2645 9.40619 35.1703 9.41247V9.42378Z" fill="#0C6DAE"/>
<path d="M51.0933 37.2428C48.645 37.2428 47.5732 35.8631 47.5732 33.6127V0H58.2913V27.1669C58.2789 27.2593 58.2871 27.3533 58.3153 27.4423C58.3434 27.5312 58.3908 27.6127 58.454 27.6812C58.5172 27.7496 58.5948 27.8032 58.6811 27.8381C58.7673 27.873 58.8603 27.8883 58.9532 27.8831H61.3525V37.2428H51.0933Z" fill="#0C6DAE"/>
<path d="M73.093 2.70829e-06V9.71781C73.093 10.1287 73.2961 10.5396 73.7549 10.5396H74.4206V-0.0150757H85.1386V33.5977C85.1386 35.8594 84.0668 37.2277 81.5659 37.2277H65.9966C63.7401 37.2277 62.375 36.1534 62.375 33.6467V21.0263H73.093V27.1669C73.0862 27.2585 73.0982 27.3505 73.1284 27.4372C73.1587 27.5239 73.2065 27.6034 73.2688 27.6707C73.3311 27.738 73.4066 27.7918 73.4906 27.8285C73.5745 27.8652 73.6652 27.8842 73.7568 27.8842C73.8484 27.8842 73.9391 27.8652 74.023 27.8285C74.107 27.7918 74.1825 27.738 74.2448 27.6707C74.3071 27.6034 74.3549 27.5239 74.3852 27.4372C74.4154 27.3505 74.4274 27.2585 74.4206 27.1669V19.8993H65.895C63.4468 19.8993 62.375 18.5196 62.375 16.2692V2.70829e-06H73.093Z" fill="#0C6DAE"/>
<path d="M28.3369 48.7662H29.9503C31.2816 48.7662 32.0713 49.2034 32.0713 50.4248C32.0713 51.6461 31.2778 52.1625 29.9503 52.1625H28.7506V54.7258H28.3369V48.7662ZM29.8412 51.8119C31.0521 51.8119 31.6351 51.4048 31.6351 50.4248C31.6351 49.4447 31.0521 49.1167 29.8412 49.1167H28.7431V51.8119H29.8412Z" fill="#0C6DAE"/>
<path d="M33.1694 51.7252C33.1694 49.8405 34.0946 48.6569 35.392 48.6569C36.6895 48.6569 37.6146 49.8329 37.6146 51.7252C37.6146 53.6175 36.6895 54.8351 35.392 54.8351C34.0946 54.8351 33.1694 53.6251 33.1694 51.7252ZM37.1784 51.7252C37.1784 50.0667 36.4563 49.0338 35.392 49.0338C34.3277 49.0338 33.6094 50.0667 33.6094 51.7252C33.6094 53.3838 34.3277 54.4544 35.392 54.4544C36.4563 54.4544 37.1784 53.3914 37.1784 51.7252Z" fill="#0C6DAE"/>
<path d="M39.4536 48.7662H39.856V54.3677H42.9624V54.7258H39.4536V48.7662Z" fill="#0C6DAE"/>
<path d="M46.0163 52.5357L43.978 48.7662H44.4067L45.4597 50.7301C45.7268 51.1937 45.9524 51.6574 46.2119 52.1361H46.2495C46.524 51.6574 46.776 51.1937 47.028 50.7226L48.0509 48.7662H48.4608L46.4187 52.5357V54.7258H46.0051L46.0163 52.5357Z" fill="#0C6DAE"/>
<path d="M56.8471 49.1243H54.7749V48.7662H59.3367V49.1243H57.2645V54.7258H56.8508L56.8471 49.1243Z" fill="#0C6DAE"/>
<path d="M60.9087 48.7662H64.4287V49.1243H61.3261V51.386H63.9586V51.7441H61.3261V54.3827H64.519V54.7408H60.9087V48.7662Z" fill="#0C6DAE"/>
<path d="M65.8237 51.7328C65.8237 49.848 66.8542 48.6569 68.3773 48.6569C68.6704 48.6575 68.9601 48.7211 69.2267 48.8434C69.4933 48.9656 69.7307 49.1436 69.9229 49.3655L69.6747 49.6407C69.516 49.4504 69.3175 49.2975 69.0933 49.1926C68.8691 49.0877 68.6247 49.0335 68.3773 49.0338C67.0723 49.0338 66.26 50.0742 66.26 51.729C66.26 53.3838 67.0723 54.4732 68.3622 54.4732C68.6522 54.4759 68.9389 54.4112 69.1999 54.2844C69.4609 54.1575 69.689 53.9718 69.8665 53.7419L70.1147 54.002C69.9045 54.2717 69.6349 54.489 69.3269 54.6368C69.019 54.7846 68.6811 54.8589 68.3396 54.8539C66.8579 54.8502 65.8237 53.6288 65.8237 51.7328Z" fill="#0C6DAE"/>
<path d="M71.3896 48.7662H71.8108V51.3747H74.7893V48.7662H75.2105V54.7258H74.7893V51.7403H71.8108V54.7258H71.3896V48.7662Z" fill="#0C6DAE"/>
<path d="M76.8389 48.7662H77.2826L79.5992 52.9654L80.231 54.1415H80.2498C80.2498 53.5685 80.1972 52.9918 80.1972 52.4113V48.7511H80.5733V54.7107H80.1295L77.8129 50.4964L77.1773 49.3165C77.1773 49.897 77.23 50.4474 77.23 51.0166V54.7107H76.8539L76.8389 48.7662Z" fill="#0C6DAE"/>
<path d="M82.3936 54.3677H83.9242V49.1243H82.3936V48.7662H85.8685V49.1243H84.3378V54.3677H85.8685V54.7258H82.3936V54.3677Z" fill="#0C6DAE"/>
<path d="M87.3237 51.7252C87.3237 49.8405 88.2489 48.6569 89.5463 48.6569C90.8437 48.6569 91.7689 49.8329 91.7689 51.7252C91.7689 53.6175 90.8437 54.8351 89.5463 54.8351C88.2489 54.8351 87.3237 53.6251 87.3237 51.7252ZM91.3326 51.7252C91.3326 50.0667 90.6106 49.0338 89.5463 49.0338C88.482 49.0338 87.76 50.0667 87.76 51.7252C87.76 53.3838 88.482 54.477 89.5463 54.477C90.6106 54.477 91.3326 53.4177 91.3326 51.7252ZM89.2981 54.7635L89.7531 54.7371C89.8378 55.0449 90.0286 55.3127 90.2916 55.4928C90.5546 55.673 90.8729 55.7538 91.1897 55.7209C91.3342 55.7231 91.478 55.7001 91.6147 55.6531L91.6974 56.03C91.5169 56.0848 91.3295 56.114 91.1409 56.1167C90.7265 56.1324 90.3189 56.0073 89.9844 55.7617C89.6499 55.516 89.4081 55.1642 89.2981 54.7635Z" fill="#0C6DAE"/>
<path d="M93.0513 52.4942V48.7662H93.4687V52.449C93.4687 53.9794 94.1682 54.4544 94.973 54.4544C95.7778 54.4544 96.4773 53.9794 96.4773 52.449V48.7662H96.8759V52.4942C96.8759 54.3036 95.9658 54.8351 94.9655 54.8351C93.9651 54.8351 93.0513 54.3036 93.0513 52.4942Z" fill="#0C6DAE"/>
<path d="M98.8242 48.7662H102.344V49.1243H99.2417V51.386H101.833V51.7441H99.2229V54.3827H102.416V54.7408H98.8242V48.7662Z" fill="#0C6DAE"/>
<path d="M109.354 51.5707H113.066V51.9099H109.354V51.5707Z" fill="#0C6DAE"/>
<path d="M120.02 53.9379L120.287 53.6515C120.522 53.9102 120.808 54.1169 121.127 54.2584C121.446 54.3999 121.792 54.4731 122.141 54.4732C123.096 54.4732 123.698 53.9869 123.698 53.2858C123.698 52.5847 123.171 52.2982 122.543 52.0343L121.64 51.6272C121.088 51.3973 120.347 51.0279 120.347 50.142C120.347 49.2562 121.121 48.6757 122.163 48.6757C122.487 48.6733 122.807 48.7349 123.107 48.8572C123.406 48.9795 123.678 49.1599 123.908 49.3881L123.667 49.6671C123.471 49.468 123.237 49.311 122.978 49.2053C122.72 49.0997 122.442 49.0478 122.163 49.0526C121.332 49.0526 120.775 49.4711 120.775 50.1194C120.775 50.7678 121.415 51.0731 121.904 51.2503L122.799 51.6574C123.513 51.9514 124.141 52.3208 124.141 53.233C124.141 54.1453 123.359 54.8389 122.152 54.8389C121.753 54.8513 121.356 54.7772 120.988 54.6218C120.62 54.4663 120.289 54.233 120.02 53.9379Z" fill="#0C6DAE"/>
<path d="M125.232 51.7252C125.232 49.8405 126.157 48.6569 127.455 48.6569C128.752 48.6569 129.677 49.8329 129.677 51.7252C129.677 53.6175 128.748 54.8351 127.455 54.8351C126.161 54.8351 125.232 53.6251 125.232 51.7252ZM129.237 51.7252C129.237 50.0667 128.519 49.0338 127.455 49.0338C126.39 49.0338 125.668 50.0667 125.668 51.7252C125.668 53.3838 126.39 54.4544 127.455 54.4544C128.519 54.4544 129.237 53.3914 129.237 51.7252Z" fill="#0C6DAE"/>
<path d="M130.959 52.4942V48.7662H131.377V52.449C131.377 53.9794 132.076 54.4544 132.881 54.4544C133.686 54.4544 134.385 53.9794 134.385 52.449V48.7662H134.78V52.4942C134.78 54.3036 133.874 54.8351 132.874 54.8351C131.873 54.8351 130.959 54.3036 130.959 52.4942Z" fill="#0C6DAE"/>
<path d="M136.266 53.9379L136.533 53.6515C136.768 53.9049 137.052 54.107 137.369 54.2452C137.685 54.3833 138.026 54.4545 138.372 54.4544C139.327 54.4544 139.929 53.9681 139.929 53.267C139.929 52.5658 139.402 52.2794 138.774 52.0155L137.871 51.6084C137.319 51.3784 136.578 51.009 136.578 50.1232C136.578 49.2374 137.352 48.6569 138.394 48.6569C138.718 48.6544 139.038 48.7161 139.338 48.8384C139.637 48.9606 139.91 49.1411 140.139 49.3693L139.898 49.6482C139.702 49.4492 139.468 49.2921 139.209 49.1865C138.951 49.0809 138.673 49.0289 138.394 49.0338C137.563 49.0338 137.006 49.4522 137.006 50.1006C137.006 50.7489 137.646 51.0543 138.135 51.2314L139.03 51.6385C139.744 51.9326 140.372 52.302 140.372 53.2142C140.372 54.1264 139.59 54.82 138.383 54.82C137.988 54.8327 137.594 54.7605 137.229 54.6084C136.864 54.4563 136.535 54.2277 136.266 53.9379Z" fill="#0C6DAE"/>
<path d="M141.696 53.9379L141.963 53.6515C142.198 53.9049 142.483 54.107 142.799 54.2452C143.116 54.3833 143.457 54.4545 143.802 54.4544C144.758 54.4544 145.359 53.9681 145.359 53.267C145.359 52.5658 144.833 52.2794 144.205 52.0155L143.302 51.6084C142.749 51.3784 142.008 51.009 142.008 50.1232C142.008 49.2374 142.783 48.6569 143.825 48.6569C144.148 48.6544 144.469 48.7161 144.768 48.8384C145.068 48.9606 145.34 49.1411 145.57 49.3693L145.329 49.6482C145.133 49.4492 144.898 49.2921 144.64 49.1865C144.381 49.0809 144.104 49.0289 143.825 49.0338C142.994 49.0338 142.437 49.4522 142.437 50.1006C142.437 50.7489 143.076 51.0543 143.565 51.2314L144.46 51.6385C145.171 51.9326 145.803 52.302 145.803 53.2142C145.803 54.1264 145.021 54.82 143.814 54.82C143.418 54.8327 143.025 54.7605 142.66 54.6084C142.295 54.4563 141.966 54.2277 141.696 53.9379Z" fill="#0C6DAE"/>
<path d="M147.552 48.7662H151.072V49.1243H147.969V51.386H150.583V51.7441H147.969V54.3827H151.162V54.7408H147.552V48.7662Z" fill="#0C6DAE"/>
</g>
<defs>
<clipPath id="clip0_251_1476">
<rect width="172" height="56.1167" fill="white"/>
</clipPath>
</defs>
</svg>
